<mxfile host="app.diagrams.net" agent="Mozilla/5.0 (Windows NT 10.0; Win64; x64; rv:130.0) Gecko/20100101 Firefox/130.0" version="24.7.16">
  <diagram name="Page-1" id="FQGINWHw1M8DnI5ozN2t">
    <mxGraphModel dx="2049" dy="1106" grid="1" gridSize="19.685" guides="1" tooltips="1" connect="1" arrows="1" fold="1" page="1" pageScale="1" pageWidth="630" pageHeight="787" math="0" shadow="0">
      <root>
        <mxCell id="0" />
        <mxCell id="1" parent="0" />
        <mxCell id="W4tn68EnuGj5kSZqvsiW-1" value="" style="whiteSpace=wrap;html=1;imageWidth=155;fillColor=none;" vertex="1" parent="1">
          <mxGeometry x="10.004999999999995" y="39.370000000000005" width="610.235" height="688.9749999999999" as="geometry" />
        </mxCell>
      </root>
    </mxGraphModel>
  </diagram>
</mxfile>
